<?xml version="1.0" encoding="utf-8"?>
<svg version="1.1" xmlns="http://www.w3.org/2000/svg" xmlns:xlink="http://www.w3.org/1999/xlink" width="20" height="180" viewBox="0 0 20 180">
<svg id="arrow-up" width="20" height="20" viewBox="0 0 20 20">
<path d="M1.891 13.941c0.299 0.301 0.783 0.301 1.081 0l7.028-7.081 7.028 7.081c0.299 0.301 0.783 0.301 1.081 0s0.299-0.789 0-1.089l-7.569-7.626c-0.299-0.301-0.783-0.301-1.081 0l-7.569 7.626c-0.299 0.301-0.299 0.789 0 1.089z"></path>
</svg>
<svg id="android" width="20" height="20" viewBox="0 0 20 20">
<path fill="#85c808" d="M3.125 5.611c-0.69 0-1.25 0.56-1.25 1.25v5c0 0.69 0.56 1.25 1.25 1.25s1.25-0.56 1.25-1.25v-5c0-0.691-0.56-1.25-1.25-1.25z"></path>
<path fill="#85c808" d="M16.875 5.611c-0.69 0-1.25 0.56-1.25 1.25v5c0 0.69 0.56 1.25 1.25 1.25s1.25-0.56 1.25-1.25v-5c0-0.691-0.56-1.25-1.25-1.25z"></path>
<path fill="#85c808" d="M5 15.611h1.25v3.125c0 0.69 0.56 1.25 1.25 1.25s1.25-0.56 1.25-1.25v-3.125h2.5v3.125c0 0.69 0.56 1.25 1.25 1.25s1.25-0.56 1.25-1.25v-3.125h1.25v-9.375h-10v9.375z"></path>
<path fill="#85c808" d="M12.952 1.581l0.642-1.112c0.087-0.15 0.036-0.341-0.115-0.428-0.149-0.087-0.341-0.036-0.427 0.115l-0.626 1.084c-0.719-0.4-1.545-0.629-2.426-0.629s-1.707 0.229-2.426 0.63l-0.626-1.085c-0.087-0.149-0.277-0.201-0.427-0.114-0.149 0.086-0.2 0.277-0.114 0.427l0.643 1.113c-1.239 0.91-2.048 2.374-2.048 4.030h10c0-1.656-0.809-3.12-2.048-4.030zM8.125 3.736c-0.346 0-0.625-0.279-0.625-0.625s0.279-0.625 0.625-0.625 0.625 0.279 0.625 0.625-0.279 0.625-0.625 0.625zM11.875 3.736c-0.346 0-0.625-0.279-0.625-0.625s0.279-0.625 0.625-0.625 0.625 0.279 0.625 0.625-0.279 0.625-0.625 0.625z"></path>
</svg>
<svg id="apple" width="20" height="20" viewBox="0 0 20 20">
<path fill="#ccc" d="M18.097 14.259v-0.136c-1.64-0.874-2.53-2.158-2.53-4.016 0-1.502 0.668-2.814 1.891-3.661l0.056-0.027c-0.806-0.983-1.891-1.966-3.559-1.966-1.167 0-2.141 1.12-3.753 1.12-1.279 0-1.808-1.066-3.198-1.066-2.891 0-5.755 2.541-5.755 5.846 0 1.749 0.584 4.454 1.891 6.803 0.946 1.721 2.113 2.841 3.42 2.841 0.945 0 2.057-0.847 3.392-0.847 1.167 0 2.252 0.766 3.308 0.766 2.531 0 4.866-3.224 4.866-5.381 0-0.111-0.028-0.193-0.028-0.276z"></path>
<path fill="#ccc" d="M10.143 5.218c1.891-0.574 3.643-1.968 3.643-4.399 0-0.191-0.027-0.437-0.056-0.71l-0.027-0.109c-1.918 0.518-3.642 1.994-3.642 4.316 0 0.219 0.028 0.492 0.083 0.792v0.109z"></path>
</svg>
<svg id="edit" width="20" height="20" viewBox="0 0 20 20">
<path fill="#3bbbe9" d="M12.486 4.568l-9.428 9.428-0.204 2.245c-0.047 0.518 0.387 0.953 0.905 0.905l2.245-0.204 9.428-9.428-2.946-2.946z"></path>
<path fill="#3bbbe9" d="M16.022 6.925l1.768-1.768c0.326-0.325 0.326-0.853 0-1.179l-1.768-1.768c-0.325-0.325-0.853-0.325-1.178 0l-1.768 1.768 2.946 2.946z"></path>
</svg>
<svg id="pencil" width="20" height="20" viewBox="0 0 20 20">
<path fill="none" stroke="#000" stroke-linejoin="round" stroke-linecap="round" stroke-miterlimit="6.2" stroke-width="0.2646" d="M19.24 5.828c0.367-0.274 0.324-0.845 0-1.169l-3.91-3.91c-0.324-0.324-0.845-0.324-1.169 0l-12.673 12.651c-0.327 2.027-0.662 4.063-0.989 6.090l6.067-1.012c3.28-3.28 4.83-4.824 6.394-6.382s3.103-3.091 6.279-6.268z"></path>
<path d="M17.351 7.72l-0.069 0.069c-0.214 0.214-0.562 0.214-0.776 0l-4.363-4.363c-0.214-0.214-0.214-0.562 0-0.776l0.069-0.069c0.214-0.214 0.562-0.214 0.776 0l4.363 4.363c0.214 0.214 0.214 0.562 0 0.776z"></path>
<path d="M4.126 19.401l-3.488-3.488-0.138 3.577z"></path>
<path d="M7.108 17.898l-0.069 0.069c-0.214 0.214-0.562 0.214-0.776 0l-4.363-4.363c-0.214-0.214-0.214-0.562 0-0.776l0.069-0.069c0.214-0.214 0.562-0.214 0.776 0l4.363 4.363c0.214 0.214 0.214 0.562 0 0.776z"></path>
</svg>
<svg id="search" width="20" height="20" viewBox="0 0 20 20">
<path d="M11.497 0.769c-4.264 0-7.733 3.469-7.733 7.733 0 1.925 0.711 3.683 1.879 5.038l-4.705 4.705c-0.225 0.225-0.225 0.59 0 0.816 0.113 0.113 0.26 0.169 0.408 0.169s0.295-0.056 0.408-0.169l4.705-4.705c1.355 1.168 3.113 1.879 5.038 1.879 4.265 0 7.734-3.469 7.734-7.733s-3.469-7.733-7.734-7.733zM11.497 15.082c-3.628 0-6.579-2.951-6.579-6.579s2.951-6.579 6.579-6.579c3.628 0 6.58 2.951 6.58 6.579s-2.951 6.579-6.58 6.579z"></path>
</svg>
<svg id="ticket" width="20" height="20" viewBox="0 0 20 20">
<path d="M17.906 8.344c0.344-0.156 0.531-0.5 0.531-0.844v-2.5c0-0.531-0.406-0.938-0.938-0.938h-15c-0.531 0-0.938 0.406-0.938 0.938v2.438c0 0.375 0.219 0.688 0.563 0.844 0.656 0.313 1.094 0.969 1.094 1.719s-0.406 1.406-1.094 1.719c-0.344 0.156-0.562 0.469-0.562 0.844v2.438c0 0.531 0.406 0.938 0.937 0.938h15c0.531 0 0.938-0.406 0.938-0.938v-2.469c0-0.344-0.219-0.688-0.531-0.844-0.625-0.313-1.031-0.969-1.031-1.656s0.406-1.375 1.031-1.688zM16.25 10c0 0.938 0.531 1.813 1.375 2.219 0.125 0.063 0.188 0.188 0.188 0.281v2.5c0 0.188-0.125 0.313-0.313 0.313h-15c-0.188 0-0.313-0.125-0.313-0.313v-2.438c0-0.125 0.094-0.25 0.219-0.281 0.906-0.406 1.469-1.313 1.469-2.281s-0.563-1.875-1.469-2.281c-0.125-0.063-0.219-0.156-0.219-0.281v-2.438c0-0.187 0.125-0.313 0.313-0.313h15c0.188 0 0.313 0.125 0.313 0.313v2.469c0 0.125-0.063 0.219-0.188 0.281-0.844 0.437-1.375 1.313-1.375 2.25z"></path>
<path d="M12.188 10.625c-0.875 0-1.563 0.688-1.563 1.563s0.688 1.563 1.563 1.563 1.563-0.688 1.563-1.563-0.688-1.563-1.563-1.563zM12.188 13.125c-0.531 0-0.938-0.406-0.938-0.938s0.406-0.938 0.938-0.938 0.938 0.406 0.938 0.938-0.406 0.938-0.938 0.938z"></path>
<path d="M7.813 9.375c0.875 0 1.563-0.688 1.563-1.563s-0.688-1.563-1.563-1.563-1.563 0.688-1.563 1.563 0.688 1.563 1.563 1.563zM7.813 6.875c0.531 0 0.938 0.406 0.938 0.938s-0.406 0.938-0.938 0.938-0.938-0.406-0.938-0.938 0.406-0.938 0.938-0.938z"></path>
<path d="M13.438 7.469c0-0.25-0.094-0.469-0.281-0.656-0.344-0.344-0.938-0.344-1.281 0l-5.031 5.063c-0.156 0.156-0.281 0.406-0.281 0.656s0.094 0.469 0.281 0.656c0.188 0.188 0.406 0.281 0.656 0.281 0.219 0 0.469-0.094 0.656-0.281l5-5.062c0.188-0.188 0.281-0.406 0.281-0.656zM12.719 7.656c0 0 0 0 0 0l-5.062 5.063c-0.125 0.125-0.281 0.125-0.406 0-0.063-0.063-0.094-0.125-0.094-0.188s0.031-0.156 0.094-0.188l5.063-5.063c0.063-0.063 0.125-0.094 0.188-0.094s0.156 0.031 0.188 0.094c0.063 0.063 0.094 0.125 0.094 0.188s0 0.156-0.063 0.188z"></path>
</svg>
<svg id="trophy" width="20" height="20" viewBox="0 0 20 20">
<path d="M13.211 6.766c-0.070-0.070-0.156-0.117-0.258-0.141l-1.719-0.25-0.766-1.547c-0.070-0.117-0.18-0.203-0.305-0.25-0.141-0.047-0.289-0.031-0.422 0.039-0.086 0.047-0.164 0.117-0.219 0.203l-0.766 1.555-1.68 0.242-0.031 0.008c-0.18 0.039-0.273 0.156-0.305 0.188l-0.031 0.039c-0.078 0.117-0.109 0.258-0.086 0.398 0.016 0.102 0.063 0.195 0.148 0.297l1.219 1.188-0.289 1.703c-0.008 0.086 0 0.227 0.094 0.367l0.031 0.039c0.117 0.133 0.258 0.18 0.328 0.188 0.031 0.008 0.063 0.008 0.086 0.008 0.078 0 0.156-0.016 0.242-0.063l1.5-0.789 1.523 0.805c0.125 0.055 0.266 0.063 0.391 0.016 0.141-0.047 0.258-0.148 0.328-0.289 0.039-0.086 0.055-0.188 0.047-0.313l-0.289-1.672 1.234-1.203c0.094-0.102 0.141-0.234 0.141-0.367v-0.039c0-0.164-0.063-0.281-0.148-0.359zM11.172 8.461l0.281 1.617-1.453-0.766-1.453 0.766 0.273-1.617-1.172-1.148 1.625-0.234 0.727-1.469 0.727 1.469 1.625 0.234-1.18 1.148z"></path>
<path d="M18.82 2.852h-2.273v-1.43c0-0.383-0.313-0.695-0.695-0.695h-11.703c-0.383 0-0.695 0.313-0.695 0.695v1.43h-2.273c-0.531 0-0.961 0.43-0.961 0.961v1.984c0 2.070 1.484 3.82 3.484 4.187 0.258 1.016 0.727 1.938 1.383 2.68 0.813 0.922 1.859 1.586 3.039 1.938l-1.203 2.594h-0.008c-0.391 0-0.703 0.313-0.703 0.711v1.375h7.57v-1.375c0-0.391-0.313-0.703-0.703-0.703l-1.211-2.594c1.18-0.352 2.227-1.016 3.039-1.938 0.656-0.742 1.125-1.664 1.383-2.68 2.008-0.367 3.484-2.117 3.484-4.188v-1.992c0.008-0.531-0.422-0.961-0.953-0.961zM0.992 5.797v-1.984c0-0.109 0.086-0.195 0.195-0.195h2.273v4.227c0 0.438 0.031 0.875 0.094 1.313-1.5-0.414-2.563-1.773-2.563-3.359zM15.633 9.406c-0.195 1.055-0.641 2-1.297 2.742-0.75 0.852-1.742 1.461-2.852 1.758l-0.703 0.18 1.805 3.883h0.43v0.539h-6.031v-0.539h0.43l1.805-3.883-0.695-0.18c-1.109-0.297-2.102-0.906-2.852-1.758-0.656-0.742-1.102-1.695-1.297-2.742-0.094-0.508-0.148-1.039-0.148-1.563v-6.352h11.547v6.352c0 0.531-0.047 1.055-0.141 1.563zM19.008 5.797c0 1.586-1.070 2.945-2.555 3.359 0.063-0.43 0.094-0.867 0.094-1.313v-4.227h2.273c0.109 0 0.195 0.086 0.195 0.195v1.984z"></path>
</svg>
<svg id="wrench" width="20" height="20" viewBox="0 0 20 20">
<path fill="#4a4a4a" d="M15.224 5.739l1.257-0.118c0.186-0.018 0.359-0.1 0.49-0.231l1.506-1.506c0.218-0.218 0.543-0.291 0.841-0.189s0.515 0.362 0.563 0.672c0.283 1.8-0.447 3.585-1.898 4.641s-3.386 1.21-5.031 0.402l-9.892 9.892c-0.652 0.652-1.709 0.652-2.361 0s-0.652-1.709 0-2.361l9.893-9.893c-0.808-1.645-0.653-3.579 0.403-5.030s2.84-2.181 4.639-1.9c0.309 0.048 0.57 0.266 0.672 0.563s0.029 0.623-0.189 0.841l-1.496 1.496c-0.137 0.138-0.219 0.321-0.231 0.517l-0.085 1.31c-0.016 0.244 0.078 0.485 0.256 0.658s0.422 0.259 0.665 0.236zM1.714 18.289c0.279 0.279 0.731 0.279 1.010 0s0.279-0.731 0-1.010c-0.279-0.279-0.731-0.279-1.010 0s-0.279 0.731 0 1.010z"></path>
</svg>
</svg>
